<?xml version="1.0" standalone="no"?>
<!DOCTYPE svg PUBLIC "-//W3C//DTD SVG 20010904//EN"
 "http://www.w3.org/TR/2001/REC-SVG-20010904/DTD/svg10.dtd">
<svg version="1.0" xmlns="http://www.w3.org/2000/svg"
 width="1024.000000pt" height="1024.000000pt" viewBox="0 0 1024.000000 1024.000000"
 preserveAspectRatio="xMidYMid meet">
<metadata>
Created by potrace 1.14, written by Peter Selinger 2001-2017
</metadata>
<g transform="translate(0.000000,1024.000000) scale(0.100000,-0.100000)"
fill="#000000" stroke="none">
<path d="M0 5120 l0 -5120 5120 0 5120 0 0 5120 0 5120 -5120 0 -5120 0 0
-5120z m6900 3719 c292 -41 645 -186 905 -373 427 -306 713 -722 834 -1214 45
-180 61 -312 61 -507 0 -435 -114 -835 -337 -1180 -75 -115 -175 -244 -227
-294 -20 -19 -36 -42 -36 -50 0 -8 -3 -11 -7 -7 -9 9 -84 -65 -77 -76 3 -5 1
-7 -4 -6 -5 2 -36 -20 -68 -48 -107 -93 -267 -209 -382 -278 -34 -21 -60 -41
-57 -46 3 -4 -1 -7 -8 -6 -6 0 -122 -54 -257 -121 -135 -67 -285 -139 -335
-161 -250 -111 -1318 -643 -1370 -683 -17 -13 -111 -51 -100 -41 30 30 588
321 1220 638 269 135 494 249 500 253 5 5 49 29 97 54 160 85 333 197 308 198
-9 0 -5 4 8 9 12 5 22 14 22 19 0 6 7 8 16 4 11 -4 15 -1 12 13 -2 11 2 18 9
17 7 -2 10 3 8 10 -2 7 34 37 83 69 141 93 429 355 437 399 2 12 10 26 18 33
15 12 60 82 138 216 37 62 99 185 99 195 0 3 7 13 15 22 8 8 12 19 9 25 -4 6
-2 8 3 5 6 -4 17 12 26 36 8 23 28 78 45 122 33 89 66 250 82 395 5 52 15 142
21 200 22 203 -4 476 -62 658 -42 132 -180 411 -231 468 -10 11 -33 48 -51 82
l-33 61 3 -62 c2 -34 -1 -69 -6 -77 -12 -18 -21 -10 -25 21 -1 13 -7 33 -13
44 -11 19 -13 19 -100 -9 -92 -30 -278 -111 -302 -132 -11 -10 -23 -8 -59 7
-25 11 -51 18 -58 15 -9 -3 -11 1 -7 11 5 13 2 15 -11 10 -10 -4 -21 -7 -25
-7 -4 0 -7 -10 -8 -22 0 -13 1 -17 4 -10 3 6 9 12 15 12 6 0 7 -7 4 -16 -5
-12 -2 -15 9 -10 9 3 14 2 11 -3 -3 -5 12 -21 34 -36 22 -15 40 -30 40 -32 0
-5 9 -10 -115 62 -55 32 -129 75 -165 95 -36 20 -92 52 -124 71 l-59 34 -23
115 c-29 143 -101 370 -153 481 -39 83 -40 84 -21 104 l20 21 -63 1 c-34 1
-127 4 -206 8 -98 5 -168 3 -220 -5 -170 -27 -381 -97 -465 -154 -23 -15 -32
-17 -47 -8 -27 17 -37 15 -12 -3 11 -8 24 -27 28 -42 3 -16 37 -125 75 -243
95 -294 114 -370 101 -383 -8 -8 -11 -8 -11 0 0 7 -9 11 -20 10 -12 -1 -18 -7
-16 -14 3 -6 -1 -10 -7 -7 -7 2 -23 -7 -35 -21 -24 -28 -28 -40 -9 -29 8 5 8
2 -2 -9 -7 -9 -21 -17 -30 -17 -9 0 -64 -47 -121 -104 l-105 -104 -80 14
c-134 22 -323 18 -479 -11 -74 -14 -149 -25 -165 -25 l-30 0 40 43 c71 73 183
200 218 247 19 25 39 51 45 59 9 11 4 11 -20 -2 -21 -11 -34 -13 -45 -5 -11 8
-11 9 4 4 18 -6 24 9 7 19 -7 4 -7 13 0 26 6 10 7 19 3 19 -4 0 -1 4 7 10 8 5
12 11 10 13 -7 7 -260 -156 -731 -470 -385 -257 -407 -273 -413 -306 -7 -39
-38 -66 -127 -115 -30 -17 -53 -34 -52 -40 2 -9 -56 -53 -367 -272 -338 -239
-525 -387 -689 -549 -66 -65 -121 -123 -121 -129 0 -5 -9 -17 -20 -27 -27 -24
-26 -36 14 -110 l33 -63 69 70 c157 159 337 302 769 612 290 207 367 260 600
412 83 54 207 135 277 181 122 79 147 91 161 77 12 -12 -12 -41 -70 -85 -73
-54 -77 -58 -112 -91 -16 -15 -32 -24 -35 -20 -4 3 -4 -1 -1 -10 4 -9 0 -18
-10 -22 -9 -3 -13 -2 -10 4 10 16 -10 11 -31 -7 -10 -10 -35 -30 -54 -44 -58
-44 -86 -73 -98 -102 -11 -25 -9 -33 9 -58 l21 -30 27 24 c14 13 82 62 151
109 69 46 199 136 290 198 91 63 194 134 230 158 36 25 120 85 187 133 152
109 170 119 231 119 107 0 202 -112 202 -238 0 -67 -14 -107 -59 -169 -29 -40
-150 -125 -418 -294 -56 -35 -128 -81 -160 -101 -68 -43 -144 -88 -150 -88 -2
0 -1 6 3 13 4 7 3 9 -2 4 -5 -5 -9 -14 -9 -20 0 -7 -8 -11 -18 -11 -9 1 -14
-3 -10 -9 4 -6 0 -8 -10 -4 -10 4 -16 2 -14 -5 3 -13 -191 -131 -207 -124 -6
2 -3 5 7 5 9 1 17 6 17 12 0 6 -7 8 -17 5 -13 -5 -11 0 6 18 13 14 34 29 45
32 12 4 24 12 29 18 5 8 9 8 15 -1 5 -7 17 -10 32 -6 l24 6 -25 10 c-21 9 -21
11 -6 14 10 3 16 11 13 18 -5 15 77 50 94 40 7 -4 10 0 8 11 -2 15 3 19 25 17
20 -1 27 2 24 11 -10 25 8 38 36 27 21 -8 25 -7 20 4 -3 8 -1 15 5 15 6 0 12
-4 14 -10 2 -6 8 -6 18 0 13 8 12 10 -3 10 -10 0 -15 5 -11 11 3 6 18 8 33 5
14 -3 20 -3 13 0 -6 3 -10 10 -7 15 4 5 -1 6 -10 3 -11 -5 -14 -2 -9 10 7 18
20 21 30 5 4 -7 16 -1 33 15 15 15 30 24 33 20 4 -3 11 4 18 15 6 12 20 21 30
21 11 0 20 4 20 9 0 5 13 11 30 14 21 5 31 14 36 32 4 15 13 25 25 25 10 0 23
9 29 20 6 11 15 20 21 20 6 0 18 7 26 16 11 11 26 14 46 10 17 -3 28 -4 25 -1
-10 10 71 87 83 79 8 -4 9 -3 5 5 -4 6 0 14 8 17 9 3 16 12 16 20 0 7 6 11 13
8 9 -3 13 8 14 38 1 26 8 45 18 50 15 9 21 59 9 71 -4 3 -31 -12 -60 -34 -30
-22 -175 -119 -322 -216 -147 -97 -366 -242 -487 -323 -121 -81 -233 -154
-250 -162 -33 -16 -65 -13 -65 5 0 7 -9 23 -19 36 l-18 23 -22 -35 c-22 -37
-109 -120 -143 -138 -14 -7 -9 4 16 41 55 79 89 160 94 220 l4 55 -31 -43
c-17 -23 -67 -68 -110 -100 -43 -31 -133 -97 -200 -145 -389 -282 -672 -550
-896 -847 -84 -112 -213 -352 -245 -455 -7 -22 -17 -45 -22 -52 -5 -7 -7 -17
-3 -22 3 -6 -2 -25 -11 -42 -12 -24 -14 -45 -10 -83 9 -71 25 -116 41 -116 11
0 12 -7 4 -32 -12 -44 -12 -45 7 -22 15 19 15 19 10 -1 -26 -94 -35 -419 -15
-548 91 -612 637 -1226 1354 -1525 333 -139 712 -208 1090 -199 289 7 495 42
806 138 70 22 130 39 135 39 19 0 -23 -20 -73 -35 -29 -9 -53 -17 -53 -20 0
-2 14 -10 30 -19 17 -8 27 -10 24 -4 -4 6 1 8 15 3 12 -3 21 -2 21 4 0 5 -8
11 -17 13 -10 3 5 4 34 4 28 -1 49 -4 47 -8 -3 -4 9 -2 26 3 33 12 41 24 10
16 -11 -3 -18 -1 -14 4 3 5 0 9 -7 9 -7 0 -10 2 -7 5 2 3 19 0 37 -6 28 -10
35 -9 52 9 10 12 37 26 59 32 21 6 45 16 52 23 7 6 24 13 38 15 14 1 27 7 28
12 5 14 22 12 22 -2 0 -17 -276 -142 -445 -203 -109 -39 -317 -95 -505 -136
-91 -20 -251 -28 -475 -25 -210 3 -259 6 -350 21 -16 3 -52 7 -80 11 -44 5
-117 20 -265 56 -277 66 -605 214 -870 391 -345 231 -595 493 -758 795 -162
301 -194 414 -213 752 -6 101 -15 191 -20 200 -9 12 -10 12 -5 -3 3 -11 2 -15
-4 -12 -6 3 -10 16 -10 28 -1 22 -1 22 -16 2 -15 -20 -16 -20 -38 6 -12 14
-30 25 -39 23 -10 -1 -24 5 -32 13 -9 8 -22 12 -30 9 -8 -3 -12 0 -10 7 2 7 0
28 -5 47 l-9 35 3 -33 c1 -18 -1 -35 -6 -38 -4 -3 -9 7 -9 23 -2 26 -2 25 -9
-7 -5 -24 -8 -28 -9 -12 -1 15 -5 21 -12 16 -8 -5 -10 0 -6 17 3 13 11 58 18
99 14 95 66 271 113 383 78 188 147 308 278 485 38 51 66 97 63 102 -3 6 0 8
7 5 7 -3 18 3 25 14 10 15 9 22 -2 31 -8 7 -12 17 -8 24 4 6 -2 4 -13 -4 -10
-8 -16 -10 -11 -5 4 5 -7 14 -25 20 -18 6 -32 16 -31 23 5 20 -3 14 -52 -35
-70 -73 -218 -302 -289 -448 -100 -204 -179 -467 -206 -682 -5 -40 -16 -86
-25 -103 -8 -16 -15 -38 -15 -49 0 -19 -2 -19 -46 -6 -40 12 -49 12 -60 0 -8
-7 -14 -16 -14 -19 0 -3 -11 -16 -25 -30 -22 -22 -25 -34 -26 -93 0 -37 -5
-77 -10 -88 -15 -31 -2 293 16 414 14 97 15 142 1 89 -21 -76 -30 -97 -40 -91
-6 3 -8 3 -4 -1 7 -8 -17 -75 -53 -149 -11 -23 -23 -62 -26 -87 -3 -25 -9 -50
-14 -55 -4 -6 -10 -22 -12 -35 -3 -14 -12 -45 -21 -70 -9 -25 -16 -55 -16 -67
0 -13 -4 -23 -10 -23 -5 0 -12 -16 -16 -35 -8 -42 -21 -45 -31 -7 -6 22 -9 14
-16 -43 -4 -38 -8 -86 -7 -105 1 -52 -18 -24 -32 46 -6 32 -12 181 -13 331 -2
149 -6 276 -10 282 -3 6 -27 11 -53 10 -26 -1 -60 4 -75 10 -37 14 -40 14 -34
-3 4 -10 1 -13 -7 -10 -20 8 -34 -62 -47 -229 -27 -347 36 -712 181 -1052 23
-54 39 -99 37 -101 -8 -8 -106 220 -142 331 -73 226 -105 438 -105 703 0 335
44 580 161 891 21 57 39 112 39 123 0 11 16 47 35 79 19 33 35 67 35 75 0 7 4
14 9 14 4 0 47 62 95 138 165 259 293 419 516 642 141 141 312 294 421 376
269 203 724 535 946 688 123 85 332 232 486 340 353 249 1068 715 1275 830
289 162 616 261 937 287 115 9 326 3 435 -12z m80 -220 c47 -10 50 -13 61 -52
5 -23 19 -72 30 -108 10 -36 19 -73 19 -81 0 -19 -29 -28 -95 -28 -68 -1 -186
-18 -200 -30 -12 -10 -75 -22 -292 -56 -62 -9 -113 -21 -113 -26 0 -5 -29 -8
-64 -6 -36 1 -63 4 -61 7 3 2 -2 16 -10 30 -16 29 -95 202 -95 208 0 7 108 53
185 80 100 34 215 62 298 73 83 10 265 4 337 -11z m-2357 -241 c9 -7 19 -27
23 -44 5 -27 3 -32 -18 -37 -27 -7 -194 -107 -322 -193 -209 -140 -245 -162
-240 -150 3 8 74 74 157 147 83 74 189 169 235 212 68 64 88 77 115 77 18 0
41 -6 50 -12z m-1253 -346 c0 -10 -18 -29 -41 -42 -39 -24 -60 -39 -154 -109
-80 -60 -61 -24 47 85 96 96 107 105 127 95 11 -7 21 -20 21 -29z m3922 -145
c75 -33 246 -132 360 -208 l98 -64 31 -80 c72 -189 160 -548 158 -643 l-1 -47
-9 55 c-11 65 -83 364 -97 400 -8 20 -9 13 -8 -35 1 -43 -3 -59 -11 -58 -7 2
-13 -3 -13 -11 0 -8 -23 -34 -51 -58 -62 -52 -89 -79 -89 -90 0 -4 -9 -8 -20
-8 -11 0 -20 -4 -20 -10 0 -5 -8 -10 -18 -10 -10 0 -24 -9 -32 -20 -8 -11 -20
-20 -28 -20 -7 0 -25 -11 -39 -24 -14 -14 -46 -32 -70 -41 -23 -9 -43 -21 -43
-26 0 -5 -7 -9 -16 -9 -9 0 -28 -9 -44 -20 -15 -11 -51 -25 -79 -31 -29 -6
-51 -16 -51 -23 0 -19 -67 -45 -127 -50 -44 -4 -53 -2 -55 12 -1 9 -4 -31 -7
-90 -3 -58 -9 -110 -14 -114 -13 -14 -36 30 -43 86 l-7 55 -9 -34 c-7 -26 -12
-31 -19 -20 -7 12 -9 12 -9 -1 0 -13 -1 -13 -10 0 -6 10 -10 11 -10 3 0 -7 -9
-13 -20 -13 -11 0 -28 -4 -38 -9 -33 -18 -237 -64 -277 -63 -31 0 -35 -1 -20
-8 l20 -9 -20 -2 c-11 -1 -42 -2 -69 -3 -38 -1 -52 -6 -64 -24 -8 -12 -19 -22
-24 -22 -5 0 -2 7 6 16 9 8 16 20 16 25 0 6 -7 3 -16 -5 -8 -9 -21 -16 -29
-16 -17 0 -250 155 -315 210 -53 44 -65 45 -73 4 -6 -33 16 -54 198 -191 77
-58 142 -108 145 -111 30 -33 -274 188 -334 243 l-39 35 7 138 c13 280 37 547
51 567 7 11 88 98 181 193 l167 174 121 -7 c67 -4 178 -10 247 -15 l126 -9
184 79 c101 43 192 79 201 79 10 1 41 -10 70 -22z m-1105 -235 c-64 -64 -129
-132 -146 -151 -17 -18 -31 -30 -31 -26 0 9 75 101 107 132 13 12 24 32 24 45
1 18 2 19 6 5 4 -14 8 -16 19 -6 10 8 11 16 3 31 -9 18 -8 19 11 13 16 -5 31
4 68 42 26 26 49 44 51 40 2 -5 -49 -61 -112 -125z m-3329 106 c7 -7 12 -17
12 -24 0 -15 -39 -41 -74 -50 -23 -5 -26 -3 -26 20 0 48 58 84 88 54z m5465
-63 c88 -93 172 -241 221 -387 44 -130 34 -290 -30 -481 -14 -43 -38 -92 -52
-108 -24 -29 -26 -30 -39 -13 -7 10 -13 24 -13 32 0 18 22 40 36 35 13 -4 49
119 70 240 20 112 20 203 1 269 -52 174 -213 448 -264 448 -8 0 -87 -23 -176
-50 -89 -28 -170 -53 -181 -56 -11 -4 -16 -2 -12 4 10 16 158 71 271 101 111
30 106 31 168 -34z m-4578 33 c14 -13 27 -35 28 -51 2 -24 -3 -30 -33 -41 -46
-17 -112 -58 -298 -186 -288 -199 -317 -218 -321 -215 -2 2 -15 -7 -29 -20
-14 -13 -28 -22 -31 -20 -7 8 35 50 204 198 88 78 208 185 267 240 129 119
166 135 213 95z m-744 -259 c26 -13 39 -49 28 -71 -5 -9 -26 -21 -47 -25 -52
-10 -56 -10 -64 2 -5 6 -8 3 -8 -7 0 -10 -4 -18 -10 -18 -32 0 6 92 48 114 33
19 29 18 53 5z m-395 -248 c32 -19 64 -74 64 -109 0 -33 -21 -82 -40 -92 -26
-14 -97 -12 -150 4 -105 31 -103 31 -96 -6 5 -26 4 -30 -6 -20 -20 21 -16 121
7 160 43 73 153 105 221 63z m262 -263 c32 -32 17 -48 -163 -173 -133 -92
-378 -318 -523 -480 l-63 -70 37 55 c101 149 171 230 338 393 136 133 322 287
346 287 9 0 21 -5 28 -12z m5230 -189 c70 -28 168 -70 218 -93 78 -37 93 -48
102 -76 32 -90 44 -398 22 -535 -33 -203 -197 -522 -340 -662 -64 -62 -396
-243 -445 -242 -11 0 20 20 69 45 48 25 98 54 109 65 11 10 25 19 29 19 11 0
98 89 98 100 0 9 30 24 42 22 5 -1 7 3 5 8 -3 13 65 109 78 110 6 1 26 25 45
55 19 30 40 55 47 55 7 0 13 6 13 12 0 7 26 50 58 96 31 46 63 96 71 110 8 15
18 30 23 33 6 3 9 10 8 15 -2 16 33 84 40 79 11 -7 28 69 41 181 10 96 0 302
-19 394 -9 40 0 35 -227 135 l-170 75 -70 -78 c-38 -42 -131 -140 -206 -217
l-137 -140 -11 -135 c-14 -162 -40 -342 -50 -353 -4 -4 -2 32 5 80 7 48 15
113 18 143 6 63 -3 172 -14 165 -9 -5 3 66 14 83 4 8 -3 16 -18 22 -14 5 -26
11 -26 14 0 2 62 67 138 144 76 77 172 181 212 231 41 50 80 91 88 91 8 0 71
-23 140 -51z m-5853 -10 c4 -6 -68 -83 -161 -175 -93 -90 -170 -164 -172 -164
-12 0 123 166 202 248 96 99 118 114 131 91z m2839 -53 c-10 -8 -21 -12 -24
-10 -5 6 21 24 34 24 6 0 1 -6 -10 -14z m881 -45 c24 -23 307 -250 419 -336
23 -18 42 -66 29 -78 -2 -3 -12 1 -21 10 -20 17 -140 93 -148 93 -3 0 -2 -6 2
-12 4 -7 4 -10 0 -6 -4 3 -6 8 -4 11 3 4 -29 32 -77 67 -18 14 -19 14 -7 -2
20 -25 -1 -33 -98 -35 -92 -2 -118 -10 -220 -69 -253 -146 -355 -196 -336
-165 3 5 0 11 -8 14 -19 7 -10 40 19 71 34 37 55 145 32 168 -14 14 -13 17 9
28 13 7 22 15 20 17 -5 5 -238 -118 -254 -134 -7 -7 -11 -16 -9 -20 6 -11 -10
-53 -21 -53 -5 0 -9 7 -9 15 0 8 4 12 9 9 5 -3 6 5 3 19 -8 32 23 67 100 110
33 19 164 95 290 170 127 75 234 136 240 137 5 0 23 -13 40 -29z m482 -324 c4
-6 1 -7 -8 -2 -26 16 -119 87 -119 92 0 6 120 -79 127 -90z m1083 69 c0 -2 -8
-10 -17 -17 -16 -13 -17 -12 -4 4 13 16 21 21 21 13z m-1330 -31 c7 -8 8 -15
2 -15 -5 0 -15 7 -22 15 -7 8 -8 15 -2 15 5 0 15 -7 22 -15z m-1047 -41 c38
-19 107 -83 107 -99 0 -7 -10 -11 -22 -11 -17 1 -24 -7 -31 -36 -13 -56 -79
-110 -297 -243 -773 -472 -1074 -681 -1272 -881 -165 -169 -197 -210 -367
-474 -18 -28 -21 -30 -15 -10 3 14 13 38 21 53 8 16 12 35 9 43 -3 9 -1 12 4
9 6 -4 10 5 9 22 -3 70 12 243 24 293 20 76 31 133 28 148 -1 6 2 12 7 12 5 0
12 9 15 20 3 11 0 20 -6 20 -13 0 18 30 128 127 114 99 361 277 615 442 425
275 874 559 904 571 35 14 105 11 139 -6z m1108 -231 c132 -68 174 -216 99
-348 -40 -69 -84 -105 -245 -198 -433 -249 -1048 -620 -1452 -875 -46 -29 -83
-50 -83 -47 0 3 24 20 53 38 28 19 108 70 177 114 123 79 160 102 377 234 205
125 798 477 898 533 57 33 118 76 142 102 78 83 126 218 104 289 -9 30 -9 30
-10 4 -2 -47 -67 -103 -221 -190 -80 -44 -176 -100 -215 -123 -38 -23 -113
-67 -165 -96 -195 -110 -827 -488 -1070 -640 -343 -214 -517 -346 -675 -512
-54 -56 -95 -96 -90 -88 15 27 99 134 135 173 19 22 36 43 36 48 1 5 3 10 4
12 1 1 4 15 6 31 2 16 8 33 15 37 7 4 9 14 6 24 -4 9 -3 13 3 10 9 -6 66 160
62 181 -1 7 5 14 14 18 10 4 14 16 12 36 -2 20 3 34 17 44 39 28 9 24 -38 -5
-80 -50 -52 -24 63 58 129 92 145 102 660 410 535 320 961 576 1101 661 165
100 195 107 280 65z m-4493 -165 c-7 -19 -38 -22 -38 -4 0 10 9 16 21 16 12 0
19 -5 17 -12z m5769 -140 c-3 -7 -5 -2 -5 12 0 14 2 19 5 13 2 -7 2 -19 0 -25z
m-10 -40 c-3 -8 -6 -5 -6 6 -1 11 2 17 5 13 3 -3 4 -12 1 -19z m-10 -40 c-3
-8 -6 -5 -6 6 -1 11 2 17 5 13 3 -3 4 -12 1 -19z m-1037 -188 c10 -70 9 -74
-12 -98 -24 -26 -178 -146 -178 -139 0 3 41 40 91 83 l92 78 -6 79 c-8 98 -1
96 13 -3z m855 -88 c6 -4 32 -34 57 -67 26 -33 76 -90 112 -127 80 -81 88
-124 27 -143 -21 -6 -22 -5 -10 8 8 8 17 13 22 10 25 -15 -10 40 -113 176
l-85 112 -40 -6 c-22 -3 -83 -13 -135 -22 -64 -11 -183 -17 -359 -20 -187 -3
-269 -7 -280 -16 -9 -7 -7 -1 4 14 l20 26 160 -3 c166 -3 317 11 495 46 113
22 112 22 125 12z m-642 -288 c44 -29 76 -91 77 -147 0 -78 -57 -155 -150
-202 -19 -10 -84 -46 -145 -80 -145 -82 -325 -177 -325 -172 0 2 106 64 235
138 130 73 250 147 267 164 60 59 97 180 68 225 -8 12 -10 11 -10 -7 0 -64 -7
-69 -335 -243 -126 -67 -255 -137 -285 -155 -77 -45 -177 -95 -192 -95 -10 0
-13 23 -13 85 0 47 3 85 7 85 4 0 5 9 3 20 -3 16 26 36 168 116 95 53 246 141
337 194 91 54 172 100 180 103 25 10 73 -2 113 -29z m-3363 2 c0 -2 -8 -10
-17 -17 -16 -13 -17 -12 -4 4 13 16 21 21 21 13z m2185 -345 c51 -23 119 -96
135 -146 42 -127 -51 -295 -211 -378 l-54 -29 32 26 c41 34 128 152 152 207
11 24 23 67 26 95 l7 52 -41 -1 c-28 -1 -40 -5 -37 -13 6 -17 -20 -52 -53 -69
-20 -10 -28 -22 -28 -39 0 -24 0 -24 23 -9 13 8 24 11 24 6 0 -6 -127 -82
-282 -171 -318 -180 -427 -247 -537 -329 -110 -82 -298 -276 -345 -356 -21
-37 -41 -65 -44 -63 -6 7 44 91 94 157 59 77 169 189 227 229 33 24 46 38 42
51 -6 18 20 35 30 19 3 -4 -1 -11 -7 -13 -9 -4 -10 -6 -1 -6 19 -1 24 16 8 29
-8 7 -15 23 -15 36 0 12 -4 26 -10 29 -5 3 -10 17 -10 30 0 13 -8 28 -17 34
-12 6 -17 20 -15 40 2 23 -5 39 -23 57 l-25 25 -28 -19 c-33 -23 -80 -48 -69
-36 35 37 739 474 892 552 50 26 108 27 160 3z m2474 5 c15 -18 -6 -40 -65
-68 -24 -11 -42 -23 -39 -27 2 -4 -2 -8 -10 -8 -15 0 -154 -70 -170 -86 -5 -5
25 8 67 30 43 22 75 36 72 32 -2 -5 -32 -23 -66 -41 -92 -49 -149 -44 -70 5
20 14 86 59 146 101 60 42 112 76 116 76 4 0 13 -6 19 -14z m-3454 -216 c-3
-6 -34 -29 -68 -51 -73 -49 -65 -37 13 20 61 44 64 45 55 31z m949 -65 c-22
-17 -34 -19 -34 -6 0 5 8 12 18 14 32 9 36 7 16 -8z m656 10 c0 -2 -13 -11
-30 -20 -38 -19 -40 -11 -2 9 31 17 32 18 32 11z m1146 -90 c11 -27 -73 -81
-93 -61 -7 7 64 76 78 76 5 0 12 -7 15 -15z m147 -195 c34 -27 40 -50 27 -99
-12 -45 -30 -65 -22 -24 3 15 1 24 -5 22 -24 -9 -191 -91 -362 -176 -102 -51
-187 -90 -189 -88 -6 6 47 54 118 107 79 59 157 125 215 179 105 99 165 120
218 79z m-905 -187 c25 -21 40 -73 22 -73 -6 0 -26 -11 -44 -25 -39 -30 -44
-30 -68 -8 -33 30 -20 86 27 111 28 16 40 15 63 -5z m-4701 -15 c-3 -8 -6 -5
-6 6 -1 11 2 17 5 13 3 -3 4 -12 1 -19z m2828 12 c3 -5 1 -10 -4 -10 -6 0 -11
5 -11 10 0 6 2 10 4 10 3 0 8 -4 11 -10z m2635 -40 c-30 -16 -59 -29 -65 -29
-5 0 15 13 45 29 30 16 60 29 65 29 6 0 -15 -13 -45 -29z m-5455 -57 c4 -17 2
-29 -4 -31 -6 -2 -9 -16 -6 -30 5 -23 4 -24 -4 -7 -12 26 -14 95 -2 95 5 0 12
-12 16 -27z m5361 12 c-11 -8 -25 -15 -30 -15 -6 1 0 7 14 15 32 19 40 18 16
0z m-46 -19 c0 -2 -7 -7 -16 -10 -8 -3 -12 -2 -9 4 6 10 25 14 25 6z m-40 -20
c0 -2 -7 -7 -16 -10 -8 -3 -12 -2 -9 4 6 10 25 14 25 6z m-120 -61 c-14 -8
-29 -14 -35 -14 -5 0 1 6 15 14 14 8 30 14 35 14 6 0 -1 -6 -15 -14z m708 -49
c88 -45 103 -154 31 -225 -17 -17 -63 -50 -102 -72 -40 -23 -91 -53 -114 -66
-24 -14 -43 -23 -43 -20 0 3 26 20 58 38 111 63 193 121 207 149 26 50 17 52
-52 11 -26 -16 -109 -63 -183 -106 -74 -43 -174 -102 -222 -132 -48 -29 -91
-53 -96 -53 -4 0 -37 -19 -73 -42 -35 -24 -94 -58 -129 -77 -36 -19 -87 -48
-115 -66 -27 -17 -68 -39 -90 -49 -22 -11 -62 -33 -90 -51 -79 -50 -83 -50
-31 -4 51 46 97 84 312 258 168 136 299 249 437 379 62 58 130 113 152 123 48
22 106 24 143 5z m-3059 -67 c-129 -143 -179 -225 -205 -336 -60 -255 139
-462 474 -494 120 -11 248 4 377 45 43 14 81 23 83 21 7 -7 -184 -64 -249 -75
-84 -13 -223 -13 -290 1 -30 6 -61 12 -69 14 -130 21 -268 123 -325 240 -67
136 -34 314 87 469 39 50 167 186 176 186 2 0 -25 -32 -59 -71z m2062 -56 c7
-20 0 -26 -74 -64 -45 -23 -97 -50 -114 -61 -18 -11 -33 -16 -33 -11 0 22 176
165 198 161 8 -2 18 -13 23 -25z m486 15 c36 -47 19 -72 -51 -75 -51 -1 -56 0
-56 20 0 48 80 89 107 55z m-4757 -33 c0 -5 -5 -3 -10 5 -5 8 -10 20 -10 25 0
6 5 3 10 -5 5 -8 10 -19 10 -25z m46 -100 c8 -19 12 -35 9 -35 -6 0 -45 87
-45 98 1 10 19 -22 36 -63z m3701 20 c4 -13 -45 -70 -53 -62 -4 3 -54 -19
-113 -50 -126 -66 -119 -51 20 42 55 38 102 72 105 77 7 11 36 6 41 -7z m718
-60 c31 -30 31 -49 4 -76 -21 -21 -59 -23 -103 -4 -15 7 -17 5 -11 -13 4 -13
2 -22 -4 -22 -18 0 -24 49 -11 81 25 60 83 77 125 34z m-805 -30 c0 -2 -10 -9
-22 -15 -22 -11 -22 -10 -4 4 21 17 26 19 26 11z m-60 -36 c-26 -17 -70 -40
-70 -35 0 7 64 46 75 46 6 0 3 -5 -5 -11z m-335 -28 c7 -12 -52 -74 -63 -67
-5 3 -53 -20 -108 -49 -106 -58 -94 -45 55 62 87 62 105 71 116 54z m-3076
-104 c18 -27 31 -51 28 -54 -3 -2 -18 15 -33 39 -15 23 -35 55 -46 70 -10 15
-18 30 -18 34 0 8 25 -24 69 -89z m2544 -8 c21 -29 10 -58 -30 -77 -41 -19
-66 -8 -71 31 -6 53 72 89 101 46z m402 -10 c-35 -23 -93 -55 -84 -45 13 14
94 64 104 65 6 1 -3 -8 -20 -20z m645 -24 c0 -2 3 -10 6 -18 4 -10 -32 -35
-128 -87 -73 -41 -160 -89 -193 -108 -33 -19 -89 -50 -125 -70 -36 -19 -73
-41 -82 -50 -10 -8 -18 -11 -18 -5 0 10 52 49 253 189 70 49 154 108 188 132
49 34 64 40 80 32 10 -6 19 -12 19 -15z m1472 -2 c26 -23 22 -34 -25 -70 -54
-40 -279 -177 -382 -233 -44 -23 -87 -49 -96 -56 -8 -8 -19 -14 -24 -14 -16 0
30 42 125 113 52 39 137 104 188 145 85 67 179 132 191 132 2 0 13 -7 23 -17z
m-1127 -107 c-15 -22 -109 -91 -177 -128 -17 -9 -56 -32 -87 -51 -31 -18 -90
-53 -131 -77 -41 -24 -108 -63 -148 -87 -40 -24 -74 -43 -77 -43 -2 0 -52 -28
-112 -61 -140 -80 -343 -182 -349 -176 -3 3 73 51 168 107 95 57 234 140 308
185 421 255 593 355 612 355 5 0 1 -11 -7 -24z m-3660 -176 c10 -11 16 -20 13
-20 -3 0 -13 9 -23 20 -10 11 -16 20 -13 20 3 0 13 -9 23 -20z m4571 -149
c-11 -17 -344 -280 -436 -343 -161 -112 -354 -228 -377 -228 -4 0 9 11 29 25
20 14 40 25 43 25 15 0 380 255 550 384 105 79 191 145 193 145 2 1 1 -3 -2
-8z m-598 -56 c-13 -6 -27 -9 -33 -6 -5 3 -2 7 8 9 9 2 15 7 12 12 -3 4 4 6
16 3 20 -5 20 -6 -3 -18z m-3707 -12 c13 -16 12 -17 -3 -4 -10 7 -18 15 -18
17 0 8 8 3 21 -13z m3609 -37 c0 -5 -107 -66 -115 -66 -13 0 -3 21 13 27 9 3
25 13 35 21 9 8 17 12 17 8 0 -4 8 -2 18 3 18 11 32 14 32 7z m-530 -186 c0
-5 -7 -7 -15 -4 -8 4 -15 8 -15 10 0 2 7 4 15 4 8 0 15 -4 15 -10z"/>
<path d="M7118 8643 c6 -2 18 -2 25 0 6 3 1 5 -13 5 -14 0 -19 -2 -12 -5z"/>
<path d="M5988 8503 c6 -2 18 -2 25 0 6 3 1 5 -13 5 -14 0 -19 -2 -12 -5z"/>
<path d="M5245 8169 c-22 -16 -76 -53 -120 -83 -44 -30 -134 -95 -200 -144
-65 -50 -122 -90 -125 -90 -20 2 -30 -4 -24 -13 3 -6 -9 -3 -27 7 -33 16 -33
16 -19 -1 14 -17 14 -17 -7 -5 -18 12 -20 17 -10 29 10 12 9 12 -10 1 -12 -8
-19 -18 -17 -22 3 -4 -1 -8 -9 -8 -13 0 -135 -74 -147 -89 -3 -3 -48 -35 -100
-71 -155 -105 -463 -324 -645 -460 -93 -69 -215 -158 -270 -196 -533 -375
-919 -703 -1122 -955 -74 -93 -188 -258 -181 -264 3 -3 10 6 17 19 12 21 17
23 49 15 20 -4 38 -13 40 -18 2 -6 31 -11 65 -11 34 0 76 -4 94 -9 34 -10 62
7 48 30 -6 8 -2 8 13 0 18 -10 24 -7 44 20 13 17 22 35 21 39 -1 5 5 14 15 22
16 12 16 11 3 -7 -15 -22 15 10 94 100 58 66 248 254 337 333 126 112 296 241
668 506 220 157 299 224 300 254 0 6 5 12 11 12 5 0 7 5 4 10 -3 6 -1 10 5 10
7 0 10 5 8 12 -3 7 10 27 28 44 18 18 30 35 28 37 -3 3 7 8 22 11 14 4 24 9
21 12 -16 16 198 172 735 537 169 115 228 166 228 195 0 6 3 12 8 14 13 6 60
63 64 76 2 8 27 39 56 69 68 74 69 78 7 32z m-2665 -2313 c0 -2 -8 -10 -17
-17 -16 -13 -17 -12 -4 4 13 16 21 21 21 13z m-72 -41 c-3 -3 -9 2 -12 12 -6
14 -5 15 5 6 7 -7 10 -15 7 -18z"/>
<path d="M5456 6931 c-4 -5 3 -7 14 -4 23 6 26 13 6 13 -8 0 -17 -4 -20 -9z"/>
<path d="M4750 6460 c0 -5 4 -10 9 -10 6 0 13 5 16 10 3 6 -1 10 -9 10 -9 0
-16 -4 -16 -10z"/>
<path d="M2873 4803 c-18 -7 -16 -43 2 -43 9 0 15 9 15 25 0 14 -1 25 -2 24
-2 0 -9 -3 -15 -6z"/>
<path d="M2881 4724 c0 -11 3 -14 6 -6 3 7 2 16 -1 19 -3 4 -6 -2 -5 -13z"/>
<path d="M1772 4700 c0 -14 2 -19 5 -12 2 6 2 18 0 25 -3 6 -5 1 -5 -13z"/>
<path d="M2692 4610 c0 -14 2 -19 5 -12 2 6 2 18 0 25 -3 6 -5 1 -5 -13z"/>
<path d="M2160 4570 c0 -5 16 -10 36 -10 21 0 33 4 29 10 -3 6 -19 10 -36 10
-16 0 -29 -4 -29 -10z"/>
<path d="M1796 4153 c10 -40 14 -41 14 -5 0 18 -5 32 -10 32 -6 0 -8 -11 -4
-27z"/>
<path d="M6178 2568 c14 -15 25 -19 32 -12 6 6 -1 14 -22 22 l-32 12 22 -22z"/>
<path d="M6049 2550 c-8 -5 -26 -11 -40 -14 -92 -20 -122 -30 -104 -34 29 -6
43 -22 20 -23 -17 0 -16 -2 4 -10 13 -5 29 -8 35 -5 6 2 3 5 -7 5 -29 1 -9 21
21 21 21 0 24 -2 12 -10 -29 -19 -1 -10 34 11 19 11 41 17 47 13 7 -4 9 -3 6
3 -4 6 5 14 19 17 21 6 24 9 14 21 -14 17 -38 19 -61 5z m46 -10 c3 -5 1 -10
-4 -10 -6 0 -11 5 -11 10 0 6 2 10 4 10 3 0 8 -4 11 -10z m-35 -8 c0 -13 -63
-32 -101 -31 -27 1 -29 3 -9 6 14 3 31 10 38 15 8 7 12 7 12 0 0 -7 10 -5 28
4 32 16 32 16 32 6z"/>
<path d="M6157 2549 c7 -7 15 -10 18 -7 3 3 -2 9 -12 12 -14 6 -15 5 -6 -5z"/>
<path d="M5858 2493 c7 -3 16 -2 19 1 4 3 -2 6 -13 5 -11 0 -14 -3 -6 -6z"/>
<path d="M5710 2470 c0 -5 17 -10 38 -10 27 0 33 3 22 10 -20 13 -60 13 -60 0z"/>
<path d="M5536 2449 c-125 -18 -168 -29 -112 -29 15 0 25 -4 22 -9 -3 -5 11
-12 32 -16 35 -8 36 -8 12 -15 -20 -6 -15 -8 22 -9 65 -1 98 12 91 38 -4 17 0
21 18 22 22 0 23 1 4 9 -17 7 -16 9 10 10 17 2 33 2 38 1 4 0 7 4 7 9 0 6 -3
10 -7 9 -5 -1 -66 -9 -137 -20z m11 -15 c-3 -3 -12 -4 -19 -1 -8 3 -5 6 6 6
11 1 17 -2 13 -5z"/>
<path d="M5053 2433 c9 -2 23 -2 30 0 6 3 -1 5 -18 5 -16 0 -22 -2 -12 -5z"/>
<path d="M5168 2433 c7 -3 16 -2 19 1 4 3 -2 6 -13 5 -11 0 -14 -3 -6 -6z"/>
<path d="M5248 2433 c6 -2 18 -2 25 0 6 3 1 5 -13 5 -14 0 -19 -2 -12 -5z"/>
<path d="M5258 2413 c7 -3 16 -2 19 1 4 3 -2 6 -13 5 -11 0 -14 -3 -6 -6z"/>
<path d="M5368 2413 c7 -3 16 -2 19 1 4 3 -2 6 -13 5 -11 0 -14 -3 -6 -6z"/>
<path d="M5648 2413 c6 -2 18 -2 25 0 6 3 1 5 -13 5 -14 0 -19 -2 -12 -5z"/>
<path d="M5700 2412 c0 -5 7 -9 15 -9 8 0 15 4 15 9 0 4 -7 8 -15 8 -8 0 -15
-4 -15 -8z"/>
<path d="M5668 2393 c7 -3 16 -2 19 1 4 3 -2 6 -13 5 -11 0 -14 -3 -6 -6z"/>
<path d="M5628 2383 c7 -3 16 -2 19 1 4 3 -2 6 -13 5 -11 0 -14 -3 -6 -6z"/>
<path d="M5420 2370 c0 -5 5 -10 10 -10 6 0 10 5 10 10 0 6 -4 10 -10 10 -5 0
-10 -4 -10 -10z"/>
<path d="M6340 6539 c0 -5 5 -7 10 -4 6 3 10 8 10 11 0 2 -4 4 -10 4 -5 0 -10
-5 -10 -11z"/>
<path d="M5309 4457 c17 -10 20 -16 10 -19 -8 -3 -12 -7 -9 -10 3 -3 23 6 45
20 22 13 31 21 20 16 -25 -9 -45 -9 -70 0 -14 5 -12 3 4 -7z"/>
<path d="M5220 4380 c-9 -6 -10 -10 -3 -10 6 0 15 5 18 10 8 12 4 12 -15 0z"/>
<path d="M5158 4344 c-38 -20 -36 -28 2 -9 17 9 30 18 30 20 0 7 -1 6 -32 -11z"/>
<path d="M4995 4250 c-3 -6 1 -7 9 -4 18 7 21 14 7 14 -6 0 -13 -4 -16 -10z"/>
<path d="M4742 4093 c-24 -24 -24 -25 -2 -8 42 33 44 35 37 35 -4 0 -19 -12
-35 -27z"/>
</g>
</svg>
